<?xml version="1.0" encoding="utf-8"?>
<!-- Generator: Adobe Illustrator 19.0.0, SVG Export Plug-In . SVG Version: 6.00 Build 0)  -->
<svg version="1.1" id="图层_1" xmlns="http://www.w3.org/2000/svg" xmlns:xlink="http://www.w3.org/1999/xlink" x="0px" y="0px"
	 viewBox="0 0 300 80" style="enable-background:new 0 0 300 80;" xml:space="preserve">
<style type="text/css">
	.st0{fill:none;}
	.st1{fill:none;stroke:#000000;stroke-width:0.5;stroke-miterlimit:10;}
	.st2{fill:url(#leftArrow);stroke:#000000;stroke-width:0.7548;stroke-miterlimit:10;}
	.st3{fill:url(#XMLID_10_);stroke:#000000;stroke-width:0.7548;stroke-miterlimit:10;}
</style>
<pattern width="30" height="80" patternUnits="userSpaceOnUse" id="leftArrow" viewBox="35 -80 30 80">
	<g id="XMLID_18_">
		<polyline class="st1" points="95,0 60,-40 95,-80"/>
		<polyline class="st1" points="89,0 54,-40 89,-80"/>
		<polyline class="st1" points="83,0 48,-40 83,-80"/>
		<polyline class="st1" points="77,0 42,-40 77,-80"/>
		<polyline class="st1" points="71,0 36,-40 71,-80"/>
		<polyline class="st1" points="65,0 30,-40 65,-80"/>
		<polyline class="st1" points="59,0 24,-40 59,-80"/>
		<polyline class="st1" points="53,0 18,-40 53,-80"/>
		<polyline class="st1" points="47,0 12,-40 47,-80"/>
		<polyline class="st1" points="41,0 6,-40 41,-80"/>
		<polyline class="st1" points="35,0 0,-40 35,-80"/>
	</g>
</pattern>
<polygon id="XMLID_4_" class="st2" points="94.434,13.585 29.518,13.585 6.167,40 29.518,66.415 94.434,66.415 71.083,40 "/>
<pattern id="XMLID_10_" xlink:href="#leftArrow" patternTransform="matrix(-1 0 0 1 0 0)">
</pattern>
<polygon id="XMLID_5_" class="st3" points="270.482,13.585 205.566,13.585 228.917,40 205.566,66.415 270.482,66.415 293.833,40 "/>
</svg>
